<svg xmlns="http://www.w3.org/2000/svg" viewBox="0 0 401.138 812.626">
  <defs>
    <style>
      .cls-1 {
        opacity: 0.45;
      }

      .cls-2 {
        fill: none;
      }

      .cls-2, .cls-3 {
        stroke: #fff;
        stroke-width: 0.5px;
        opacity: 0.209;
      }

      .cls-3 {
        fill: #777;
      }
    </style>
  </defs>
  <g id="portugal" class="cls-1" transform="translate(-687.153 -137.96)">
    <path id="PT-01" class="cls-2" d="M726.961,193.886l10.61.077,3.486-3.984,4.06,4.826,3.409-3.179-3.141-1.494.766-2.107,3.562,1.647.958-1.762,7.2,8.312-1.149-8.159,6.205,1.877,6.435-6.32,3.639,2.3h0l3.256,1.3-.46,5.171,4.443,2.413-1.073,2.566,9.614,2.452,5.133-4.865.23,3.409-5.248,6.32,3.562,12.947-3.218,2.873-4.558-2.758-2.8,3.179-4.9-2.949-2.911,1.417,2.183,4.865-4.328,10.917-7.2,2.72.728,4.558,3.524,2.873.306,9.231,5.937,2.988-7.623,3.179,2.835,9.116,4.213,4.443-10.342,3.984,2.183,7.086-4.52,5.133-.153,6.588h0l-.192,3.141-5.707-.728-.536,4.443-4.75,1-.69,6.052-8.389-1.8-.766-3.984,5.439.038.46-11.108-2.834-5.784-8.2,3.486-.268-10.227-4.865-3.294-2.452,9.385-3.371-.345L710.03,272.793h0l3.869-16.164-1.379-3.371,9.883-32.9Z" transform="translate(63.939 127.965)"/>
    <path id="PT-02" class="cls-2" d="M788.182,297.764l13.215-1.3,5.516,4.443,3.409-2.873,17.237,10.189,9.652.8,10.84,7.086,4.175-1.417,16.586,3.218.23-2.8,10.5-9.27.307-4.788,6.167-.153,2.26-3.294,6.014-1.571,5.209,10.419,6.55,2.566-1.073,3.447,4.75,9.844L916,317.988h0l2.835,2.873,17.965-7.776-4.022,8.236,2.03,2.107-4.29,7.737L928.8,343.346l-5.4,1.264-6.282-4.52-3.6,2.183.919,3.792-6.359,1.8-3.486-1.609-7.317,3.6,1.724,3.83-4.252,13.1-4.941,8.121-11.721,8.657L875.4,397.93l-7.316,9.078-1.034,11.951h0l-7.469-.421-5.324,5.631-6.933-2.107-10.84,2.758-10.993,7.623-4.29.421-1.954,4.6-9-.383-2.988,4.482,1.953,2.183-9.078,6.665-14.862-3.447L774.814,440.1l-.307-5.784-5.133-2.069-1.111,2.337L757.5,435.2l-3.984,6.473-7.738-.306-6.665-4.941-5.554,1.417-2.834,3.984L727.738,438l-8.389.843-1.953-5.554-5.631-1.685h0l1.264-13.636-4.1-10.112,4.06-17.429-3.218-5.324,2.375-10.763h0l2.03,2.222,4.942-1.494,6.282,9.346,2.72-2.3,5.286,2.911,3.639-1.149.421-6.473,4.175-2.528,1.417-5.707,12.449-2.681,12.564,3.639-.536-2.949,4.328-4.98.689-14.4-3.064-5.018-5.439.651-5.516-7.776,2.528-6.473,3.065,1.724,3.6-7.891,5.133,2.49.8-7.278,5.4,1.111,2.337-3.562,10.955-3.294L792.4,306Z" transform="translate(60.827 446.165)"/>
    <path id="PT-03" class="cls-2" d="M801.018,152.59l-1.3,9.5-6.972,11.53,9.959-1.877,5.822,2.566-1,13.138,14.019,2.49,3.677-4.367,4.865,6.742-6.129,9.883-3.869-.268-1.111,3.907-4.29,1.839-4.367,16.509h0l-6.856,9.04-4.175-3.907-2.566,2.222-4.022-2.222-5.554-9.193-5.784-1.839-7.776,6.818-1.149,4.558-3.524-1.647-1.149-4.1-8.235,2.413,1.187-3.064-1.839-.536-3.869,3.409-2.949-2.03-5.516,1.149-2.068,3.639-11.147.766h0l.038-8.082h0l2.375-1.417-7.2-3.141-2.375-4.1-3.754.5-9-4.673h0L709.24,186.03h0l6.4-.345,7.278-4.252,5.516,1.532.958-3.754,4.711,3.256,3.256-1.379,1.762,3.1,2.681-1.226-.8-5.171,3.1-2.6,2.413-9.538,4.865,1,10.457-6.129,8.274,1.456L771.6,158.8l2.719,1.57,12.909-7.584h0l8.619,1.647Z" transform="translate(61.704 40.136)"/>
    <path id="PT-04" class="cls-2" d="M829.206,145.58l3.792.843,2.183,6.55,2.911,1.073,12.717-.46,4.022-4.482,4.673,3.716-2.6,9.883,6.7,1.915-6.435,20.723,3.294,10.189,5.095,3.754,6.665-4.482,17.2,3.716L903.1,212.574l-8.312,9.768.843,2.222-6.588,8.12.651,3.371L885.667,239l1.877,3.984-8.7.153,1.532,4.06-4.635,1.839-2.72,6.857-5.937,2.222,1.034,2.49-2.183,1.57-3.179-1.532-5.9,5.861-2.451-2.6-1,1.877-5.861-.651L840.2,277.156l-7.125,6.052,1.685,4.9-6.626,10.8-14.824,1.149h0l-7.316.689L792.7,291.9l2.183-7.278-5.631-1.877,1.57-6.665-5.631,8.5-10.38-3.026-6.627.881h0l-6.435-1.341-3.984-7.584-5.018-2.49h0l2.145-6.014,3.256.613-.5-6.627,3.562-2.911-1.609-1.685,7.355-3.83-5.669-4.252-.46-12.143,8.082-3.869,1.762-8.235,6.627-1.149-3.6-11.032,6.052-19.5,4.443-5.248.115-4.06-4.75-7.125,1.188-10.61h0l3.294-6.4-1.456-8.618,5.324-2.988,6.512,2.8,1.877,3.83,7.967-.115,3.256-3.792,4.214,4.75,6.32.766,8.542-1Z" transform="translate(184.857 19.643)"/>
    <path id="PT-05" class="cls-2" d="M786.638,240.646l15.283-6.933,5.708-7.891,8.657.919,6.052-12.181,17.2,2.068,2.107-4.6,4.175-.843,2.72,1.3-.383,9.576-7.125,8.465,1.647,2.068,9.538,3.524,3.332-4.367,6.205,2.758,5.975-8.848,3.409,7.278,8.427-1.839,7.584,5.171h0l-1.456,3.026-5.975,2.03-1.034,12.87,3.409,4.941h6.32l9.308,15.82-5.171,13.866.383,8.35-10.112,9.5,1.264,5.9-4.711,15.973-16.433,2.72-12.1-2.145-9.921,4.06-25.166-3.562h0l-11.606,6.4-4.137-4.1-3.83,1.953-2.3,6.78-3.945.766-8.465,7.967h0l1.762-5.171-6.55-10.61-6.052-4.75-5.209,1.111h0l-1.494-13.138h0l-2.451,2.643-5.669-3.026-2.107,1.877-.422,10-2.3,2.068,2.643,6.473-9.615.958-12.3-5.286.881-16.931-1.685-4.022-2.72,1.57-2.375-4.1h0v-.115h0L727,301.627l7.891-1.341,2.873-4.788,4.482-.613,3.677-7.661h0l.46-2.3,3.907.268-.421-2.873,6.435.728.192-3.792,1.724,2.145.421-2.873,6.09,1.915,1.264-3.984,6.167-.038-1.685-4.711,6.244-3.984,6.78,3.524.23-5.439h0l-1.341-1h0l3.677-1.456,1.647,3.409,5.018-6.588-9.346-11.951Z" transform="translate(108.604 206.001)"/>
    <path id="PT-06" class="cls-2" d="M721.259,206.88l14.671,14.556,3.371.345,2.452-9.385,4.826,3.294.307,10.227,8.159-3.486,2.834,5.784-.421,11.108-5.439-.038.766,3.984,8.35,1.8.689-6.052,4.75-1.034.536-4.443,5.708.728.192-3.141h0l6.856,1.456,5.9,5.516,7.01-3.179,7.125,1.609,19.382-11.376,17.582-14.786h0l3.831,6.512-6.205,4.52.345,2.337,5.822,1.417-.958,8.81,5.669,2.8-5.593,3.792-2.6,6.627,5.286,5.669h0L839.2,260.43l9.346,11.951-5.018,6.588-1.647-3.409-3.677,1.456h0l1.341,1h0l-.23,5.439-6.78-3.524-6.244,3.984,1.685,4.711-6.167.038-1.264,3.984-6.09-1.915-.421,2.873-1.724-2.145-.192,3.792-6.435-.728.421,2.873-3.907-.268-.46,2.3h0l-1.647-.919,2.72-4.98-5.554-7.929,1.455-8.006-4.252-2.643-3.716,5.9-3.945-2.375-4.06,3.447-2.681,5.669,3.332,3.179-1.072,4.673-4.175-4.6-7.24,10.189-4.252-1.264,3.524-3.716-5.593-11.185-.115,4.558-3.677-3.179-4.022,4.979-3.83.268-1.992,5.592-2.8-12.449-3.6.077-2.834,5.554-3.371.306.23-3.256-4.175-2.988L723.4,282.608l-4.137,4.482-8.236-1.724-3.064-3.294h0l3.907-14.671-5.784-7.891Z" transform="translate(52.788 193.801)"/>
    <path id="PT-07" class="cls-2" d="M765.661,273.658l1.111,1.417,5.286-6.588,8.58-.307-1.992,2.911,2.107,5.4,3.945-7.24,6.857,5.324-1.034,6.282,11.8-5.248,5.9,10.266,10.419,1.954,4.558-1.915,2.337-4.788,4.213,4.137,1.762-2.643,5.554,2.8,4.022-6.55,7.508-2.222-1.3-3.792,2.375-2.451,9.729,6.818-1.609,5.937,5.248,3.486,2.222,8.465-2.375.115,3.946,7.2,7.661-.383.306-3.294,9.767-3.486,4.52,2.566-3.026,7.508,3.486,4.826h0l-6.78,4.29-1.532,13.138,3.486,2.222-8.58,16.969-.843,5.478,2.566-.69.192,2.03-4.482,5.209,6.78,2.49,15.629,22.1,5.171,13.445h0l-6.282,4.328-4.75-9.844,1.073-3.447-6.55-2.566-5.21-10.419-6.014,1.571-2.26,3.294-6.167.153-.307,4.788-10.5,9.27-.23,2.8-16.586-3.218-4.175,1.417-10.84-7.086-9.652-.8-17.237-10.189-3.409,2.873-5.516-4.443-13.215,1.3h0l-4.022-3.486-8.657-1.685-.958-2.758-5.478-.115,4.673-6.129-2.183-1.877,2.183-.23-4.75-1.686,1.532-3.332-7.086-13.445-12.947,4.482-3.447-4.75-1.877.728,1.685,3.639-2.719,1.226-5.631-5.669-7.737-.23-1.724-9.653L732.6,315.716l-1.187-3.141,2.413-3.945-6.742-.345h0l5.593-6.78,3.639,1.915,4.864-6.052,2.567,1.724,3.792-5.171,4.367,2.72,2.451-3.141,1.341,2.222,1.111-3.562,6.052,7.623,3.447-1.685,2.107,4.673,3.792-.268-.5,1.953,4.367,2.375,1.953-4.711-3.026-2.528-1.149,2.03-3.333-4.75,3.486-4.482L760.3,286.03Z" transform="translate(75.686 367.308)"/>
    <path id="PT-08" class="cls-2" d="M845.057,407.369l2.107.383-7.47,5.9Zm-14.173-.268,8.7,6.435-6.627-.881-6.435-4.75Zm15.015-2.413,1.417,1.379-6.167,1.8Zm-49.987-9.193-8.044,1.647-8.159-4.443-8.619,2.452-11.951-4.9-9.768-.766-5.861,2.452-.345,4.214L736,395l-20.263,6.665-6.474,7.393-1.915-4.788-4.022.421,11.3-21.6-1.8-4.711,7.01-10.955-2.145-7.891,9.883-18.463h0l5.631,1.685,1.953,5.554,8.389-.843,2.988,3.83,2.835-3.984,5.554-1.417,6.626,4.941,7.738.345,3.983-6.473,10.764-.613,1.111-2.336,5.095,2.068.345,5.784,10.457,6.895,14.824,3.409,9.078-6.665-1.954-2.184,2.988-4.482,9,.421,1.954-4.6,4.328-.421,10.994-7.661,10.84-2.758,6.895,2.145,5.363-5.669,7.469.421h0l5.9,5.937,6.818,47.8-6.282-.843L877,385.229l-28.23,20.646-3.907-1.839-5.324,3.141-1.724,3.83L831,406.679l-5.095.958L810.43,397.6l-8.7-3.064Z" transform="translate(44.976 536.739)"/>
    <path id="PT-09" class="cls-2" d="M791.524,220.619l4.711,3.256-2.375,3.371-3.869-2.26Zm13.713-34.781,6.665-.881,10.342,3.026,5.631-8.5-1.532,6.665,5.593,1.877-2.145,7.316,13.292,8.848,7.354-.689h0L866.1,230.425v2.413l-3.026.843-.5,13.943,4.482,14.556-6.205,15.13,5.4,2.49.69,6.167-6.588,9.5L862.2,302.4l6.474,6.818-1.571,5.707-8.12,4.558-1.149,5.861-9.729.766h0l-7.584-5.133-8.427,1.839-3.409-7.278-5.975,8.848-6.167-2.758-3.332,4.367-9.538-3.524-1.647-2.107,7.125-8.465.383-9.576-2.72-1.264-4.175.843-2.107,4.558-17.2-2.03-6.052,12.181-8.657-.919-5.707,7.891-15.284,6.895h0l-5.248-5.669,2.6-6.588,5.592-3.83-5.669-2.758.958-8.81-5.822-1.417-.383-2.337,6.205-4.52-3.792-6.512h0l19.689-9.691,10.227-2.183,5.516-18.539-6.742-3.754,2.451-5.631-6.933-5.133,8.082-14.441,5.707.46,7.316,9.078,6.091-10.534,2.834,1.57.689-6.971,4.6-3.447,1.341-6.052-6.474-3.064-.038-3.524,5.018-.153-1-5.133Z" transform="translate(147.807 116.247)"/>
    <path id="PT-10" class="cls-2" d="M777.7,304.726l1.839,2.413-5.248,6.665h0l-2.337-2.413h0l.536,8.772h0l-21.068,2.222-5.095,11.683-5.478,2.222-.421,12.449h0l-8.7-2.03-13.483,15.284-2.949-5.631,1.877-3.294-1.609-5.209-6.665-2.413-4.98,5.324-5.362-1.3h0l-2.911-8.887-5.324-1.685,7.584-.575,12.756-9.691,3.562,2.911-1.379,1,4.788-.153-5.324-5.363,6.78-10.112,4.137-.575-1-2.681,8.389-10.342-1.264-2.566,4.367-18.118,18.961-50.907h0l3.064,3.294,8.235,1.685,4.1-4.443,10.993,1.685,4.175,2.988-.191,3.256,3.371-.306,2.835-5.554,3.6-.038,2.758,12.449,1.992-5.592,3.83-.23,4.022-4.98,3.677,3.179.115-4.558,5.592,11.185-3.486,3.715,4.252,1.264,7.24-10.189,4.175,4.6,1.073-4.635-3.294-3.179,2.681-5.669,4.06-3.447,3.945,2.413,3.716-5.937,4.29,2.681-1.494,8.006,5.554,7.929-2.72,4.98,1.685.919h0l-3.677,7.661-4.482.651-2.873,4.788-7.891,1.341-1.187,7.316h0l-5.707-1.073.421,6.4-1.915-1.954-4.213,3.524-2.911-1.3-5.9,4.6-2.95-16.816-13.981,9.614-5.095-2.03-5.018,2.528-.5,4.252,1.992,3.409-1.8,2.528,5.477,2.3-1.877,5.248-6.4,3.524h0Z" transform="translate(8.18 244.155)"/>
    <path id="PT-11" class="cls-2" d="M730.418,351.149l-16.432,1-5.171,3.945-8.274-4.443-4.175,1.954-7.2-2.911,1.724-6.435-3.448-4.75,10.917-24.362L696.978,294l9.231-19.957.536-13.79h0l5.363,1.3,5.018-5.324,6.665,2.413,1.647,5.209-1.839,3.294,2.95,5.631,13.521-15.284,8.7,2.03h0l2.337,1.494-.728,5.822,8.427,2.26,4.405-2.452,5.171,4.29.766,5.784-10.457,2.183,13.9,11.76,1.954,5.9-5.056,4.712-4.443-.115,2.3,1.839-4.329,7.278,3.218,1.111-4.9,2.835-2.413,8.7-6.971,9.576h0l-2.528-3.945-.69-13.828-10.8,18.769-2.183,13.522Z" transform="translate(0 333.484)"/>
    <path id="PT-12" class="cls-2" d="M821.494,242.455l4.558,11.223,8.389,8.619,4.788.766,1.034,6.014,10.61,5.363L847.426,286.2l1.838,7.048,9.193,9-1.187,10.917,12.909,5.746-1.111,9.729,4.673,1.455,8.772-2.8,8.848,9.729,1.034,4.788L880.176,359.9l1.532,6.55-19.88,17.505h0l-3.486-4.826,3.026-7.508-4.52-2.566-9.767,3.486-.306,3.294-7.661.383-3.946-7.2,2.375-.115-2.222-8.465-5.248-3.486,1.609-5.937-9.729-6.818-2.375,2.451,1.3,3.792-7.508,2.222-4.022,6.55-5.554-2.8-1.762,2.643-4.213-4.137-2.337,4.788-4.558,1.915-10.419-1.954-5.9-10.266-11.8,5.248,1.034-6.282-6.857-5.324-3.945,7.24-2.107-5.4,1.992-2.911-8.581.307-5.286,6.588-1.111-1.417h0l-7.622-14.441-6.359-4.558,5.439-8.274,13.6-8.58,6.129-10.61,6.857,1.341,6.32-9.921-.421-3.486,7.431-2.911,3.524-4.252-8.427-9.883,6.473-14.249,12.6,8.389,3.179-4.137h0l8.465-7.967,3.945-.766,2.3-6.78,3.83-1.953,4.137,4.1,11.606-6.4h0Z" transform="translate(103.396 293.518)"/>
    <path id="PT-13" class="cls-3" d="M721.615,215.705l-3.218-5.592-2.681-20.57-5.746-13.292,1.417-9h0l9,4.673,3.715-.5,2.413,4.137,7.2,3.141-2.375,1.417h0l-.038,8.044h0l11.147-.728,2.068-3.639,5.554-1.149,2.911,2.03,3.869-3.409,1.839.536-1.187,3.064,8.236-2.413,1.149,4.1,3.524,1.647,1.149-4.558,7.776-6.818,5.746,1.839,5.592,9.193,4.022,2.222,2.566-2.222,4.175,3.907,6.856-9.04h0l3.256,3.639-1.992,3.716,6.819,4.328-1.035,4.826,4.9,4.9-4.405,19.574h0l-4.826-.46L798.8,228.537l-18.348-.689-7.2,4.52h0l-3.639-2.26-6.435,6.32-6.205-1.877,1.149,8.159-7.2-8.312-.958,1.762-3.562-1.647-.766,2.107,3.141,1.494-3.409,3.179-4.06-4.826-3.485,3.984-10.611-.077h0Z" transform="translate(63.77 81.63)"/>
    <path id="PT-14" class="cls-2" d="M703.41,319.585l.421-12.449,5.477-2.222,5.133-11.683,21.068-2.222h0l-.536-8.772h0l2.337,2.413h0l5.209-6.55-1.8-2.528L738.8,266.3h0l6.4-3.524,1.877-5.248-5.477-2.3,1.8-2.528-1.992-3.409.5-4.252,5.018-2.49,5.133,2.03,13.981-9.614,2.95,16.816,5.9-4.6,2.911,1.3,4.213-3.524,1.915,1.954-.383-6.4,5.745,1.072h0l.039.153h0l2.336,4.1,2.758-1.609,1.685,4.06-.881,16.931,12.3,5.286,9.615-.919-2.643-6.512,2.3-2.03.383-10,2.107-1.877,5.669,3.026,2.452-2.643h0l1.494,13.177h0l5.209-1.111,6.09,4.75,6.55,10.61-1.762,5.171h0L841.8,286.3l-12.6-8.389-6.474,14.249,8.389,9.883-3.524,4.252-7.431,2.911.421,3.524-6.32,9.883-6.856-1.3-6.129,10.572-13.56,8.58-5.478,8.274,6.358,4.6,7.622,14.441h0l-5.363,12.411,13.713,6.359-3.486,4.482,3.332,4.788,1.149-2.068,3.026,2.528-1.954,4.712-4.405-2.375.536-1.954-3.792.268-2.145-4.673-3.447,1.724-6.052-7.622-1.111,3.562-1.341-2.222-2.452,3.141-4.367-2.72-3.831,5.171-2.566-1.724-4.865,6.09-3.639-1.915-5.631,6.818h0l-8.006-3.026,2.03-8.925-5.171,4.865-8.312-5.554L732.56,405.77l-4.6,1.341-5.746-4.252-8.312,3.945-2.222-3.639h0l-2.3-2.834,1.188-3.984-4.06-3.486h0l6.972-9.576,2.413-8.7,4.9-2.8-3.218-1.111,4.367-7.278-2.3-1.839,4.443.115,5.056-4.711-1.953-5.9-13.9-11.759,10.457-2.183-.766-5.784-5.171-4.29-4.4,2.452-8.427-2.26.766-5.822Z" transform="translate(45.202 273.309)"/>
    <path id="PT-15" class="cls-2" d="M753.383,340.7l13.024.421-6.014-3.447L757.865,319.4l-2.528,5.056-3.1-2.452.843,4.328-3.524.843,6.512.613-2.72,5.094-14.364-7.355-15.743,11.453-23.481,4.941,4.98-14.134,4.558-2.835-4.6,1.188-3.562-13.713-6.205-8.887,14.134-3.945-.038,3.486,5.592,2.6-3.256-.5,2.567,4.865-.153-3.371,2.95-.306,3.907,6.244-1.8-6.895-3.141-1.685,6.014-2.988.421,2.72,2.107-1.379,3.141,2.949-1.762-4.865,4.9-2.643-9.691,1.571.536-3.984,14.364-6.818h0l2.222,3.639,8.312-3.945L752,292.549l4.6-1.341,5.516-15.858,8.312,5.592,5.209-4.865L773.608,285l8.006,3.026h0l6.742.345-2.413,3.945,1.188,3.141-18.424,15.935,1.724,9.691,7.737.23,5.631,5.669,2.72-1.226-1.685-3.639,1.877-.69,3.447,4.75,12.909-4.443,7.125,13.445-1.532,3.332,4.75,1.685-2.184.23,2.184,1.877-4.712,6.129,5.477.115,1,2.758,8.657,1.686,4.022,3.486h0l4.213,8.236v6.512l-10.955,3.294-2.337,3.524-5.362-1.111-.843,7.278-5.133-2.452-3.6,7.852-3.064-1.724-2.528,6.474,5.554,7.776,5.439-.651L812.3,406.5l-.69,14.4-4.328,4.98.536,2.988-12.564-3.639-12.411,2.681-1.417,5.707-4.175,2.528-.383,6.473-3.639,1.111-5.286-2.873-2.72,2.3-6.282-9.385L754,435.271l-2.03-2.222h0l-1.839-16.509-9.653-3.716,6.052-10.572,5.975-19.114.46-29.341-5.018-12.909-9.768-10.955,9.921,7.355,3.141,8.542-1-8.159Z" transform="translate(21.2 387.602)"/>
    <path id="PT-16" class="cls-2" d="M790.361,140.325l1.111,12.6,7.7-2.8,2.643,1.609L803.5,158.9l-9.691,7.393L787.3,177.519l2.03,6.4,3.715-.421.5,9.423h0L780.631,200.5l-2.719-1.57-1.494,3.179-8.274-1.456-10.457,6.129-4.865-1-2.413,9.538-3.1,2.6.8,5.171-2.681,1.226-1.762-3.1-3.256,1.379-4.711-3.256-.958,3.754-5.516-1.532-7.278,4.252-6.4.345h0l-8.542-22.217,2.452-9.768-1.571-9.691L722.025,174.3l1.455-5.286,9.921-5.937,3.179-7.354,10.879-1.034,3.179-4.137,22.715-.69,9.461-8.58,3.6.536,3.064-3.409Z" transform="translate(55.392 0)"/>
    <path id="PT-17" class="cls-2" d="M756.9,148.04l2.567.46-.919,10.5,2.337,2.337,3.333-5.861,17.467-4.29,5.669,4.29,8.236-.115-3.1,8.542L803.4,161.83l2.3-4.443,6.013.69,2.95,9.346,7.546-7.355,6.129,1.647,13.866-5.975h0l-1.187,10.61,4.75,7.125-.115,4.06-4.443,5.248-6.052,19.5,3.6,11.032-6.627,1.149-1.762,8.235-8.082,3.869.46,12.143,5.669,4.252-7.355,3.83,1.609,1.685-3.562,2.911.5,6.627-3.256-.613-2.145,6.014h0l-8.58,1.839-2.49,3.141-2.949-1.379-5.095,5.133-9.04-1.034-4.022,3.409-11.989-3.256L768,273.832l-7.278-1.8-4.558,5.937h0l4.367-19.574-4.9-4.9,1.034-4.788-6.818-4.328,2.03-3.716-3.256-3.6h0l4.367-16.509,4.29-1.839,1.111-3.907,3.869.268,6.129-9.883-4.865-6.742-3.677,4.367-14.019-2.49,1-13.138L741,184.621,731.04,186.5l6.971-11.53,1.3-9.5h0l4.6-1.647,4.673-7.393,6.435-.421Z" transform="translate(123.408 27.257)"/>
    <path id="PT-18" class="cls-2" d="M835.314,178.16l5.018,2.49,3.984,7.584,6.4,1.341h0l-4.98,14.9,1,5.133-5.018.153.038,3.524,6.473,3.064-1.3,6.052-4.6,3.447-.69,6.971-2.8-1.57-6.091,10.534-7.316-9.078-5.707-.46-8.082,14.441,6.933,5.133-2.452,5.631,6.78,3.754-5.516,18.539-10.227,2.183-19.689,9.691h0L769.852,306.4,750.47,317.818l-7.125-1.609-7.01,3.179-5.9-5.516-6.856-1.417h0l.153-6.588,4.52-5.133-2.183-7.086,10.342-3.984-4.213-4.443-2.834-9.078,7.622-3.179-5.937-2.988-.307-9.231-3.524-2.873-.728-4.558,7.2-2.72,4.328-10.917-2.183-4.865,2.911-1.417,4.9,2.95,2.8-3.179,4.558,2.758,3.218-2.873L750.661,220.1l5.248-6.32-.23-3.409-5.133,4.865-9.614-2.451L742,210.221l-4.443-2.413.46-5.171-3.256-1.3h0l7.2-4.52,18.348.689,12.219-5.286,4.826.46h0l4.6-5.937,7.278,1.8,2.03-2.566,11.989,3.256,4.022-3.409,9,1.034,5.095-5.133,2.949,1.379,2.49-3.179Zm6.435,49.451-4.712-3.256-1.494,4.367,3.869,2.26Z" transform="translate(102.293 112.511)"/>
  </g>
</svg>
